<svg xmlns="http://www.w3.org/2000/svg" viewBox="0 0 64 64">
  <defs>
    <radialGradient id="face" cx="36%" cy="22%" r="76%">
      <stop offset="0%" stop-color="#fffde8"/>
      <stop offset="58%" stop-color="#ffe65f"/>
      <stop offset="100%" stop-color="#f0aa25"/>
    </radialGradient>
    <linearGradient id="beak" x1="0" x2="1" y1="0" y2="1">
      <stop offset="0%" stop-color="#ffe3bd"/>
      <stop offset="58%" stop-color="#f4a768"/>
      <stop offset="100%" stop-color="#d97747"/>
    </linearGradient>
    <linearGradient id="lowerBeak" x1="0" x2="1" y1="0" y2="1">
      <stop offset="0%" stop-color="#ed9562"/>
      <stop offset="100%" stop-color="#c76045"/>
    </linearGradient>
  </defs>
  <path d="M21 20c-4-14 7-17 12-5-3 3-7 5-12 5z" fill="#efab25"/>
  <path d="M30 17c1-16 11-16 12 0-4 3-8 3-12 0z" fill="#ffd84f"/>
  <path d="M39 18c7-13 16-8 11 6-5-1-8-3-11-6z" fill="#ffe56a"/>
  <circle cx="32" cy="36" r="22" fill="url(#face)"/>
  <path d="M14 40c5 10 11 15 18 15s14-5 18-15c-3 12-10 18-18 18s-15-6-18-18z" fill="#f0a426" opacity=".28"/>
  <circle cx="24" cy="32" r="2.9" fill="#171008"/>
  <circle cx="40" cy="32" r="2.9" fill="#171008"/>
  <path d="M27.2 35.8c1.5-2.5 8.1-2.5 9.6 0-1.4 2.2-8.2 2.2-9.6 0z" fill="#ffe5c8"/>
  <path d="M26.4 37.7c1.8-3.3 4-4.8 5.6-4.8s3.8 1.5 5.6 4.8c-.4 4.9-3.9 8-5.6 9.4-1.7-1.4-5.2-4.5-5.6-9.4z" fill="url(#beak)"/>
  <path d="M29.3 43.4c1.6 1.7 3.8 1.7 5.4 0-.6 3.2-4.8 3.2-5.4 0z" fill="url(#lowerBeak)"/>
</svg>
